<svg width="360" height="360" viewBox="0 0 360 360" fill="none" xmlns="http://www.w3.org/2000/svg">
<path d="M180 31.4561C83.224 31.4561 5.45605 98.3768 5.45605 180.146C5.45633 261.916 83.2242 328.836 180 328.836C276.776 328.836 354.544 261.916 354.544 180.146C354.544 98.3768 276.776 31.4561 180 31.4561Z" stroke="black" stroke-width="4.91225"/>
<path d="M176.999 50.2007C235.544 50.2007 283.005 83.4232 283.005 124.405C283.005 165.386 235.544 198.609 176.999 198.609C118.454 198.609 70.9942 165.386 70.9941 124.405C70.9941 83.4232 118.454 50.2008 176.999 50.2007ZM176.999 108.505C130.163 108.505 92.1947 127.489 92.1943 150.907C92.1943 174.325 130.163 193.309 176.999 193.309C223.835 193.309 261.804 174.325 261.804 150.907C261.803 127.489 223.835 108.505 176.999 108.505Z" fill="black"/>
</svg>
