<?xml version="1.0" encoding="UTF-8"?><svg version="1.1" width="1877px" height="201px" viewBox="0 0 1877.0 201.0" xmlns="http://www.w3.org/2000/svg" xmlns:xlink="http://www.w3.org/1999/xlink"><defs><clipPath id="i0"><path d="M71.0534999,0 C75.4735243,0 79.5620469,2.44444444 81.772059,6.33333332 L132.270838,92.4444445 C145.19941,114.555555 145.30991,141.888889 132.712841,164.11111 C120.11577,186.333333 96.4686403,200 71.0534999,200 C45.5278589,200 21.9912289,186.333333 9.39415928,164.11111 C-3.31341087,141.888889 -3.09240964,114.555555 9.83616177,92.4444445 L60.3349406,6.33333332 C62.5449529,2.44444444 66.6334755,0 71.0534999,0 Z"></path></clipPath><clipPath id="i1"><path d="M56.8235803,0 C66.5389442,0 76.1413388,1.44869648 85.8567026,4.34608943 C95.5720665,7.24348248 102.689135,11.1438192 107.433848,16.2699759 C109.128388,18.1644252 110.032143,20.6160654 110.032143,23.4020201 C110.032143,26.7451659 108.67651,29.6425589 106.078215,31.9827609 C103.479921,34.3229629 100.429748,35.548783 97.0406675,35.548783 C94.3294039,35.548783 91.9570471,34.7687157 89.8106297,33.3200192 C79.4174495,26.6337277 67.7816076,23.2905819 54.5641936,23.2905819 C46.8822779,23.2905819 40.7819335,24.9621549 36.2631592,28.3053006 C31.6314167,31.6484463 29.3720291,35.9945358 29.3720291,41.4550072 C29.3720291,44.3524001 30.3887532,46.9154785 32.3092322,49.0328042 C34.2297111,51.1501298 36.9409756,52.9331408 40.3300565,54.3818373 C43.7191365,55.7190956 47.5600943,57.0563539 51.9658984,58.2821741 C56.3717033,59.5079942 61.0034468,60.7338143 65.7481586,62.0710725 C70.4928712,63.4083307 75.3505532,64.7455892 80.2082351,66.0828477 C85.065917,67.4201062 89.6976605,69.2031168 94.1034645,71.5433185 C98.5092695,73.883521 102.463197,76.5580371 105.852277,79.5668684 C109.241357,82.5756997 111.952621,86.4760364 113.98607,91.1564406 C116.019518,95.8368448 117.036242,101.185878 117.036242,107.092102 C117.036242,113.444079 115.906548,119.461741 113.534192,124.810774 C111.161836,130.159807 107.772755,135.063088 103.141013,139.409177 C98.5092695,143.755267 92.408925,147.098412 84.8399786,149.550053 C77.2710321,152.001693 68.4594231,153.227513 58.63109,153.227513 C47.2211866,153.227513 36.2631592,151.55594 25.8699799,148.101357 C15.3638305,144.646772 7.79488494,139.966368 2.82423285,134.171582 C1.01672408,131.83138 0.112969241,129.491179 0,126.928099 C0,123.473516 1.3556318,120.576123 3.95392709,118.013044 C6.55222146,115.449966 9.48942446,114.224146 12.8785053,114.224146 C15.589769,114.224146 17.9621258,115.004214 19.9955739,116.564348 C31.8573552,125.479403 44.961799,129.936931 59.5348448,129.936931 C69.3631779,129.936931 76.8191551,127.931043 81.7898063,123.919269 C86.7604575,119.907494 89.2457826,115.227089 89.2457826,109.766619 C89.2457826,106.423473 88.2290585,103.637518 86.3085796,101.185878 C84.3881007,98.7342374 81.6768371,96.7283501 78.2877562,95.1682151 C74.8986762,93.608081 70.9447491,92.2708225 66.5389442,91.0450018 C62.1331401,89.8191821 57.5013967,88.5933624 52.6437147,87.2561039 C47.7860328,85.9188454 43.0413201,84.6930257 38.1836382,83.3557672 C33.3259562,82.0185088 28.6942137,80.2354981 24.2884087,78.0067343 C19.7696354,75.7779705 15.9286776,73.1034535 12.5395967,70.2060609 C9.15051674,67.3086674 6.43925222,63.5197686 4.51877329,58.9508032 C2.59829437,54.3818373 1.58157029,49.1442423 1.58157029,43.2380182 C1.58157029,30.7569408 6.8911301,20.6160654 17.0583709,12.3696393 C27.2256117,4.12321305 40.4430257,0 56.8235803,0 Z M265.92984,1.89444924 C269.092981,1.89444924 271.804246,3.00883115 274.063633,5.34903315 C276.32302,7.68923524 277.452714,10.47519 277.452714,13.7068975 C277.452714,16.8271669 276.32302,19.6131216 274.063633,21.8418855 C271.804246,24.0706494 269.092981,25.1850313 265.92984,25.1850313 L199.503865,25.1850313 L199.503865,63.0740164 L264.34827,63.0740164 C267.511411,63.0740164 270.222675,64.1883983 272.482062,66.5285999 C274.741449,68.8688024 275.871142,71.6547572 275.871142,74.9979029 C275.871142,78.1181721 274.741449,80.9041269 272.482062,83.1328907 C270.222675,85.3616545 267.511411,86.4760364 264.34827,86.4760364 L199.503865,86.4760364 L199.503865,127.039538 L265.92984,127.039538 C269.092981,127.039538 271.804246,128.15392 274.063633,130.382684 C276.32302,132.611448 277.452714,135.285964 277.452714,138.406234 C277.452714,141.749379 276.32302,144.646772 274.063633,146.986975 C271.804246,149.327176 269.092981,150.441558 265.92984,150.441558 L188.884746,150.441558 C184.365972,150.441558 180.525014,148.881423 177.361873,145.761154 C174.198731,142.529447 172.61716,138.851986 172.61716,134.505897 L172.61716,17.8301106 C172.61716,13.4840212 174.198731,9.69512268 177.361873,6.57485334 C180.525014,3.45458391 184.365972,1.89444924 188.884746,1.89444924 Z M428.040852,1.89444924 C431.203993,1.89444924 433.915258,3.00883115 436.174644,5.34903315 C438.434032,7.68923524 439.563725,10.47519 439.563725,13.7068975 C439.563725,16.8271669 438.434032,19.6131216 436.174644,21.8418855 C433.915258,24.0706494 431.203993,25.1850313 428.040852,25.1850313 L361.614876,25.1850313 L361.614876,63.0740164 L426.45928,63.0740164 C429.622423,63.0740164 432.333686,64.1883983 434.593074,66.5285999 C436.852461,68.8688024 437.982154,71.6547572 437.982154,74.9979029 C437.982154,78.1181721 436.852461,80.9041269 434.593074,83.1328907 C432.333686,85.3616545 429.622423,86.4760364 426.45928,86.4760364 L361.614876,86.4760364 L361.614876,127.039538 L428.040852,127.039538 C431.203993,127.039538 433.915258,128.15392 436.174644,130.382684 C438.434032,132.611448 439.563725,135.285964 439.563725,138.406234 C439.563725,141.749379 438.434032,144.646772 436.174644,146.986975 C433.915258,149.327176 431.203993,150.441558 428.040852,150.441558 L350.995758,150.441558 C346.476984,150.441558 342.636026,148.881423 339.472884,145.761154 C336.309743,142.529447 334.728172,138.851986 334.728172,134.505897 L334.728172,17.8301106 C334.728172,13.4840212 336.309743,9.69512268 339.472884,6.57485334 C342.636026,3.45458391 346.476984,1.89444924 350.995758,1.89444924 Z M553.097917,1.78301105 C568.461749,1.78301105 582.244009,4.90328039 594.218759,11.2552573 C606.19351,17.6072342 615.456997,26.4108514 622.122188,37.6661086 C628.787379,48.921366 632.063491,61.736758 632.063491,76.2237227 C632.063491,90.5992496 628.787379,103.526079 622.122188,114.781337 C615.569966,126.036594 606.19351,134.840211 594.218759,141.08075 C582.244009,147.321289 568.461749,150.441558 553.097917,150.441558 L513.219739,150.441558 C508.700965,150.441558 504.860007,148.881423 501.696865,145.761154 C498.420754,142.529447 496.839183,138.851986 496.952152,134.394458 L496.952152,17.7186724 C496.952152,13.372583 498.533724,9.58368449 501.696865,6.46341515 C504.860007,3.34314572 508.700965,1.78301105 513.219739,1.78301105 Z M553.210887,25.1850313 L523.725887,25.1850313 L523.725887,127.039538 L553.097917,127.039538 C568.913626,127.039538 581.340254,122.136257 590.60374,112.441135 C599.867227,102.746013 604.49897,90.7106874 604.49897,76.2237227 C604.49897,66.6400386 602.578491,57.9478594 598.737534,50.3700624 C594.896576,42.7922655 589.135139,36.6631649 581.227285,32.0941991 C573.319431,27.5252333 564.055944,25.1850313 553.210887,25.1850313 Z"></path></clipPath><clipPath id="i2"><path d="M383.357717,0 C404.843529,0 422.484504,6.97999515 436.280652,21.0507791 C438.542319,23.2666506 439.673148,26.0364899 439.673148,29.4710907 C439.673148,32.794898 438.316153,35.5647373 435.828321,37.8914024 C433.227405,40.2180674 430.287241,41.4367967 426.894746,41.4367967 C423.389167,41.4367967 420.33592,40.2180674 417.848097,37.6698152 C413.21168,33.1272786 407.896766,29.5818843 401.903364,27.0336321 C395.909953,24.4853799 389.690376,23.2666506 383.244634,23.2666506 C368.317648,23.2666506 355.991577,28.363155 346.266421,38.3345766 C336.541266,48.4167919 331.678693,61.0472593 331.678693,76.5583596 C331.678693,92.06946 336.541266,104.810721 346.379504,114.892936 C356.10466,124.975152 368.43073,130.071656 383.244634,130.071656 C390.255791,130.071656 396.927699,128.742133 403.373442,126.083087 C409.819185,123.424041 414.79485,120.432615 418.526594,116.887221 L418.526594,94.1745383 L384.375463,94.1745383 C381.209133,94.1745383 378.495134,93.0666019 376.233477,90.7399374 C373.97181,88.413272 372.840981,85.6434324 372.840981,82.2088324 C372.840981,79.1066122 373.97181,76.4475661 376.233477,74.2316942 C378.495134,72.0158233 381.209133,70.9078878 384.375463,70.9078878 L429.156412,70.9078878 C433.679737,70.9078878 437.524573,72.4589975 440.690903,75.5612177 C443.857233,78.663438 445.440393,82.4304195 445.440393,86.7513688 L445.440393,113.563414 C445.440393,119.546266 443.517975,125.196739 439.786231,130.293243 C436.054487,135.389747 431.191914,139.599903 425.198502,142.92371 C419.205091,146.247518 412.533183,148.79577 405.29586,150.568467 C398.058528,152.341165 390.708122,153.227513 383.357717,153.227513 C368.769979,153.227513 355.539245,150.125293 343.552423,143.81006 C331.678693,137.605619 322.06662,128.520546 314.94238,116.776428 C307.818131,105.032308 304.19947,91.6262858 304.19947,76.5583596 C304.19947,65.1466215 306.234971,54.7320256 310.419047,45.0929847 C314.603132,35.4539437 320.257285,27.3660128 327.381525,20.8291919 C334.505774,14.292371 342.873926,9.19586665 352.599081,5.53967876 C362.324236,1.88349077 372.501723,0 383.357717,0 Z M887.821886,0.775555017 C897.547041,0.775555017 907.159114,2.2158715 916.884269,5.09650438 C926.609424,7.97713735 933.733673,11.8549124 938.483164,16.9514168 C940.179416,18.8349076 941.084079,21.2723663 941.084079,24.0422056 C941.084079,27.3660128 939.727075,30.2466457 937.126169,32.5733108 C934.525254,34.8999758 931.472007,36.1187051 928.079511,36.1187051 C925.365513,36.1187051 922.990763,35.3431501 920.842188,33.9028336 C910.438526,27.2552192 898.790962,23.931412 885.560228,23.931412 C877.870564,23.931412 871.76407,25.5933156 867.240746,28.9171228 C862.604329,32.2409301 860.342672,36.5618794 860.342672,41.9907645 C860.342672,44.8713975 861.247335,47.3088561 863.282836,49.5247276 C865.205245,51.6298056 867.919243,53.4025027 871.311739,54.8428192 C874.704235,56.172342 878.549062,57.501865 882.959313,58.7205943 C887.369554,59.9393236 892.005971,61.1580529 896.755461,62.4875758 C901.50496,63.8170989 906.367533,65.1466215 911.230116,66.4761441 C916.092689,67.8056676 920.729096,69.5783643 925.139347,71.9050297 C929.549588,74.2316942 933.507498,76.8907403 936.899994,79.882167 C940.292499,82.8735937 943.006488,86.7513688 945.041989,91.4046987 C947.07749,96.0580286 948.095236,101.376121 948.095236,107.24818 C948.095236,113.563414 946.964407,119.546266 944.589658,124.864358 C942.214908,130.18245 938.822412,135.057367 934.186005,139.378316 C929.549588,143.699266 923.443094,147.023072 915.866523,149.460531 C908.289952,151.89799 899.469459,153.116719 889.631221,153.116719 C878.209813,153.116719 867.240746,151.454816 856.837093,148.020215 C846.320349,144.585614 838.743777,139.932284 833.768121,134.171018 C831.958786,131.844353 830.94104,129.517688 831.167206,127.301816 C831.167206,123.867215 832.5242,120.986583 835.125116,118.438331 C837.726031,115.890078 840.666195,114.671349 844.058691,114.671349 C846.772689,114.671349 849.14743,115.446904 851.182931,116.998015 C863.05667,125.8615 876.174321,130.293243 890.76205,130.293243 C900.600288,130.293243 908.063786,128.298959 913.039442,124.31039 C918.015107,120.321821 920.50293,115.668491 920.50293,110.239606 C920.50293,106.915799 919.485184,104.145959 917.562766,101.708501 C915.640357,99.2710424 912.926359,97.2767576 909.533863,95.725648 C906.141368,94.1745383 902.183458,92.8450148 897.773207,91.6262858 C893.362965,90.4075568 888.726558,89.1888268 883.863976,87.8593043 C882.648332,87.5269236 881.439756,87.2014675 880.234714,86.8794737 L873.018592,84.9613598 L869.38933,83.9815292 C864.526748,82.6520066 859.89034,80.8793089 855.48009,78.663438 C850.956765,76.4475661 847.111938,73.78852 843.719442,70.9078878 C840.326947,68.0272546 837.612948,64.2602731 835.69053,59.7177365 C833.768121,55.1751999 832.750366,49.9679019 832.750366,44.0958425 C832.750366,31.6869622 837.839114,21.2723663 848.016601,13.0736417 C858.194088,4.87491729 871.424822,0.775555017 887.821886,0.775555017 Z M564.969339,1.10793575 C569.37959,1.10793575 573.450583,2.2158715 577.408493,4.54253655 C581.592569,7.20158234 584.645816,10.6361831 586.455151,15.0679261 L633.723924,132.398321 C634.289348,134.392605 634.628597,136.054509 634.628597,137.273238 C634.628597,140.929426 633.271593,144.14244 630.557595,147.133866 C627.843605,150.125293 624.338027,151.56561 620.153942,151.56561 C617.213778,151.56561 614.612871,150.67926 612.238122,149.128151 C609.863372,147.577041 608.167129,145.471963 607.036291,142.812917 L599.120471,122.094519 L530.478959,122.094519 L522.336973,142.812917 C521.43231,145.471963 519.736058,147.577041 517.248225,149.128151 C514.760402,150.790054 512.046404,151.56561 509.219322,151.56561 C505.035247,151.56561 501.529659,150.236086 498.81567,147.355453 C496.101671,144.585614 494.744668,141.261807 494.631585,137.273238 C494.631585,135.389747 495.083916,133.727844 495.875506,132.398321 L542.918113,15.0679261 C544.614366,10.7469767 547.328364,7.42316943 551.173191,4.87491729 C555.018018,2.32666505 559.202094,1.10793575 563.838511,1.10793575 Z M13.5756367,1.2187293 C17.1942981,1.2187293 20.360628,2.54825224 22.9615435,5.09650438 C25.5624589,7.75555017 26.9194535,10.6361831 26.9194535,14.0707839 L26.9194535,127.080229 L82.7825625,127.080229 C85.9488924,127.080229 88.6628815,128.188165 91.0376312,130.404037 C93.4123809,132.619908 94.5432098,135.278954 94.5432098,138.381174 C94.5432098,141.704981 93.4123809,144.585614 91.0376312,146.912279 C88.6628815,149.238944 85.9488924,150.34688 82.7825625,150.34688 L16.2896351,150.34688 C11.7663106,150.34688 7.92147425,148.79577 4.75514438,145.69355 C1.47573162,142.480536 -0.107428739,138.824348 0.00565414379,134.392605 L0.00565414379,13.9599903 C0.00565414379,10.5253896 1.36264873,7.53396307 3.9635642,4.98571083 C6.56447966,2.4374586 9.73080954,1.2187293 13.5756367,1.2187293 Z M242.116793,2.65904578 C245.283123,2.65904578 247.997121,3.76698154 250.258788,6.09364659 C252.520446,8.42031164 253.651284,11.190151 253.651284,14.4031647 C253.651284,17.5053847 252.520446,20.2752241 250.258788,22.4910956 C247.997121,24.706967 245.283123,25.8149027 242.116793,25.8149027 L175.623866,25.8149027 L175.623866,63.4847183 L240.533633,63.4847183 C243.699963,63.4847183 246.413952,64.5926538 248.675619,66.9193192 C250.937285,69.2459837 252.068114,72.0158233 252.068114,75.3396306 C252.068114,78.4418509 250.937285,81.2116896 248.675619,83.4275614 C246.413952,85.6434324 243.699963,86.7513688 240.533633,86.7513688 L175.623866,86.7513688 L175.623866,127.080229 L242.116793,127.080229 C245.283123,127.080229 247.997121,128.188165 250.258788,130.404037 C252.520446,132.619908 253.651284,135.278954 253.651284,138.381174 C253.651284,141.704981 252.520446,144.585614 250.258788,146.912279 C247.997121,149.238944 245.283123,150.34688 242.116793,150.34688 L164.994047,150.34688 C160.470723,150.34688 156.625896,148.79577 153.459566,145.69355 C150.180153,142.480536 148.596983,138.824348 148.710066,134.503399 L148.710066,18.5025269 C148.710066,14.1815775 150.293236,10.414596 153.459566,7.31237588 C156.625896,4.21015582 160.470723,2.65904578 164.994047,2.65904578 Z M702.365436,1.2187293 C705.984097,1.2187293 709.150427,2.54825224 711.751343,5.09650438 C714.352249,7.75555017 715.709253,10.6361831 715.709253,14.0707839 L715.709253,127.080229 L771.572352,127.080229 C774.738682,127.080229 777.452681,128.188165 779.82743,130.404037 C782.20218,132.619908 783.333009,135.278954 783.333009,138.381174 C783.333009,141.704981 782.20218,144.585614 779.82743,146.912279 C777.452681,149.238944 774.738682,150.34688 771.572352,150.34688 L705.079434,150.34688 C700.556101,150.34688 696.711273,148.79577 693.544943,145.69355 C690.378614,142.480536 688.795453,138.824348 688.795453,134.392605 L688.795453,13.9599903 C688.795453,10.5253896 690.152448,7.53396307 692.753363,4.98571083 C695.354279,2.4374586 698.520609,1.2187293 702.365436,1.2187293 Z M564.856256,29.13871 L537.829374,98.9386618 L591.54389,98.9386618 L564.856256,29.13871 Z"></path></clipPath></defs><g transform="translate(0.08422525801017855 0.085715104800002)"><g transform=""><g clip-path="url(#i0)"><polygon points="0,0 142.065076,0 142.065076,200 0,200 0,0" stroke="none" fill="#23E5AF"></polygon></g></g><g transform="translate(238.64609250794172 28.0634909739191)"><g clip-path="url(#i1)"><polygon points="0,0 632.063491,0 632.063491,153.227513 0,153.227513 0,0" stroke="none" fill="#AAAAAA"></polygon></g></g><g transform="translate(928.1699006781286 28.0634909739191)"><g clip-path="url(#i2)"><polygon points="-8.67361738e-19,0 948.095236,0 948.095236,153.227513 -8.67361738e-19,153.227513 -8.67361738e-19,0" stroke="none" fill="#5C5B5C"></polygon></g></g></g></svg>