<svg width="360" height="360" viewBox="0 0 360 360" fill="none" xmlns="http://www.w3.org/2000/svg">
<path d="M180 31.4561C83.224 31.4561 5.45605 98.3768 5.45605 180.146C5.45633 261.916 83.2242 328.836 180 328.836C276.776 328.836 354.544 261.916 354.544 180.146C354.544 98.3768 276.776 31.4561 180 31.4561Z" stroke="white" stroke-width="4.91225"/>
<path d="M180.005 50.2007C238.55 50.2007 286.011 83.4232 286.011 124.405C286.011 165.386 238.55 198.609 180.005 198.609C121.46 198.609 74 165.386 74 124.405C74 83.4232 121.46 50.2008 180.005 50.2007ZM180.005 108.505C133.169 108.505 95.2006 127.489 95.2002 150.907C95.2002 174.325 133.169 193.309 180.005 193.309C226.841 193.309 264.81 174.325 264.81 150.907C264.809 127.489 226.841 108.505 180.005 108.505Z" fill="white"/>
</svg>
